<svg xmlns="http://www.w3.org/2000/svg" width="1469.413" height="1466.354" viewBox="0 0 1102.06 1099.766"><g fill="#f2ca50"><path d="M519.745.225c-.3.2-5.8.7-12.2 1.1-39.1 2.2-94.9 13.6-136.3 27.8-29.6 10.1-71.7 29-91.3 40.9-3.5 2.1-6.6 3.9-6.8 3.9-2.1 0-37.9 23.8-53.9 35.8-23.9 18-35.7 28.3-59.1 51.7-19.2 19.2-35.7 38.1-49.3 56.5-5.1 6.9-9.8 13.2-10.6 14.1-3.9 5-19.4 28.8-25.5 39.4-1 1.6-3.4 5.9-5.5 9.5-8.4 14.6-24.1 47.8-32.6 69-14.8 37.1-28.1 90.6-32.9 132.3-5.9 52.2-4.8 110.4 3.1 157.7 3.6 21.4 6.2 32.6 7.1 30.4.5-1.3.6-.9.2 1.3-.6 3.6 2.5 16.4 9.3 38.3 6.7 21.4 16.4 47.1 17.6 46.3.6-.4.7-.1.3.6-1 1.5 1.3 7.3 2.5 6.5.5-.3.6.1.4.9-2.1 5.4 46.9 94.4 50.7 92.1.7-.4.8-.3.4.4-.8 1.3 1.7 5.5 2.7 4.7.4-.3.5-.2.2.2-.6.8 1.1 3.6 9.8 15.3 10.8 14.5 14.8 19.1 15.9 18.3.7-.3.8-.1.4.6-2.4 3.8 52.8 59.3 81.9 82.5 3.3 2.6 6.7 5.3 7.5 5.9 7.3 5.8 22.6 16.7 32.5 23.2 6.6 4.3 13.1 8.5 14.5 9.5 13.8 9.3 52.9 29.7 76.9 40 54 23.2 115.1 37.8 175.9 42.1 22.4 1.5 78.2.6 97.7-1.6 15.9-1.8 42.8-6.3 60.2-10 19.7-4.2 29.4-10.3 36.8-23 6.5-11 6.7-12.6 7.5-52 .8-39.2 1.6-45.9 7.2-63.5 6.1-18.9 16.4-37.3 29.2-51.8 3.1-3.5 5.3-6.8 5-7.4-.4-.7-.2-.8.4-.4s3.2-1.4 5.9-4.1c2.6-2.6 11.3-9.9 19.3-16.2 35.8-28.4 53.3-45.2 74.5-71.6 44.5-55.5 72.6-120.5 83.4-193 3.3-22.4 4.5-49.9 3.2-73.2-2.8-48.2-12.1-90.4-29.4-132.3-7.5-18.3-7.8-19-9-18.3-.6.3-.7.1-.3-.5 1.9-3.1-32.9-61.2-35.7-59.5-.6.3-.7.1-.3-.5 2.2-3.6-40-50.6-62.4-69.6-58.9-50-128.4-80.5-208-91.3-19.1-2.6-78.6-2.6-97 0-47.7 6.6-87.7 19-128.5 39.7-53.3 27.1-97.4 63.5-134.2 110.8-45.3 58.2-72.9 128.9-79.9 204.4-2.2 23.4-1.4 64.8 1.5 86.7 3.7 27.3 10.3 54.9 18.8 79 2.3 6.7 4.3 12.5 4.3 12.8 0 .2.5.1 1.2-.3.6-.4.8-.3.5.3-1 1.6 1.3 7.4 2.6 6.6.6-.4.7-.1.3.6-1.1 1.6 5.3 16.3 6.7 15.4.5-.3.7-.1.4.4-1 1.6 5.1 14.5 6.5 13.7.7-.4.8-.3.4.4-.9 1.5 5.2 13.5 6.4 12.7.5-.3.8 0 .5.7-.6 1.5 12 23.3 13.4 23.3.5 0 1.3.4 1.8.9.5.6.2.6-.6.1-2-1.2-.9 1.4 3.6 8.3 6.8 10.5 11.1 15 17.5 18.1 5.2 2.7 7.2 3.1 13.8 3.1 4.2 0 9.9-.7 12.8-1.5 5.6-1.7 13.9-7.5 13.4-9.4-.1-.7.2-1 .7-.6.9.5 2.7-1.9 13.4-18.7 8.4-13.1 21.9-24.5 35.7-30.1 11-4.4 14.9-5.1 28.5-5.1 20.9.1 29.4 3.4 58 21.9 34.8 22.5 71.7 34.4 116.7 37.6 14.4 1 19 .9 34-.5 16.4-1.6 36.3-4.7 40.1-6.1.9-.4 1.7-.4 1.7-.1s-2.9 4.3-6.3 8.8c-22.7 29.6-41.4 64.2-53.7 99.5-7.3 20.9-13.6 48.5-14.6 63.2-.3 4.7-.9 9-1.4 9.6-1.8 2.3-3 27.6-3 66.3 0 27.5-.3 41.1-1 41.4-1.7.5-24.5-1-39.5-2.7-49.2-5.6-89.6-15.8-136-34.2-54.6-21.6-112.9-58.1-160-100.3-6.5-5.8-30.8-30.1-36.5-36.5-8-9-16.4-18.9-22-25.8-3.9-4.9-5.6-6.4-6.3-5.5-.6.9-.7.8-.3-.5.4-1.2-1.5-4.5-5.6-10-17.4-23.4-34.4-51.6-48-79.7-9.6-19.9-9.3-19.2-13.6-29.3-1.6-3.7-3.2-6.4-3.7-6-.4.5-.5.2-.1-.5s-1.1-6.1-3.2-12c-16.8-45.1-25.9-86.8-30.4-138.7-1.2-15-1.6-66.4-.5-78 .4-3.9 1.1-12.2 1.7-18.5 6.1-66.9 30.4-143 64.8-202.8 2.9-5.1 5-9.7 4.7-10.2-.4-.6-.2-.9.4-.8 1.3.4 14.3-20 13.5-21.3-.3-.5-.1-.8.5-.7 1.8.5 16.2-21.5 14.8-22.5-.8-.5-.7-.7.4-.5.9.2 6-5.2 13.6-14.7 6.7-8.3 16-19.2 20.8-24.3 4.8-5.2 8.3-9.8 7.9-10.4s-.3-.8.3-.5c1.3.8 8.6-6.7 7.6-7.8-.5-.4-.3-.6.2-.2 1 .5 4.1-2.1 17-14.2 2.8-2.6 9.3-8.3 14.5-12.7 39.9-33.8 82.9-60.4 133-82.4 5.2-2.3 11-4.9 12.9-5.7 8.4-3.8 49.3-16.5 66.1-20.7 45.8-11.2 82.3-15.6 128.9-15.6 33.7 0 62.1 2.5 94.1 8.1 28.9 5.1 75.1 18.4 100.5 28.9 5.5 2.3 11.8 4.9 14 5.8 4.8 1.9 43.3 21.2 49 24.4 25.9 14.9 53.8 34 72.2 49.5 3.1 2.6 5.8 4.1 6.4 3.7q1.05-.6.6.3c-.4.6 2.1 3.5 5.6 6.4 3.4 3 9.5 8.4 13.5 12.2 4.5 4.2 7.7 6.5 8.5 6.1.6-.4.9-.4.5.1-.5.5 3.6 5.4 9 10.9 39.6 41 70.3 84.3 95.8 135.4 3.9 7.8 7.4 13.9 7.9 13.5.4-.5.5-.2.1.4-.4.7.4 3.6 1.7 6.5 3.9 8.6 16.2 42.2 21.1 57.8 8.5 27.2 15.7 62.2 18.8 91.5 1 8.8 1.5 11.2 2 9 .6-2.5.6-2.3.4 1-.2 2.2.1 15.9.7 30.4.8 20 .8 31.7-.1 48.5-.7 12.2-1.4 23.4-1.7 25.1-.2 1.6-.9 7.3-1.5 12.5-2.8 23.6-9 54-16.1 78.7-12.4 43.1-30 83.8-52.9 122.3-18.3 30.9-46.3 67.6-71.3 93.6-26.5 27.6-55.9 52.1-90.6 75.6l-9.4 6.4-6.1-3.1c-5.4-2.7-7.1-3-15.1-3-7.6 0-9.8.4-14 2.5-6.5 3.3-12.7 9.7-16.2 16.8-2.5 5-2.8 6.8-2.8 14.7.1 7.8.5 9.7 2.8 14.2 3.9 7.5 7.8 11.5 14.6 15.2 21.6 11.5 48.6-3.6 49.4-27.7l.2-4.9 14.5-9.8c58.5-39.5 109.3-89.9 148.2-147 46.7-68.4 74.9-138.7 89.3-223 6.6-38.3 8.7-92.9 5-132-6.3-67.5-22-127.5-48.7-186-16-35-38.4-71.8-64.1-105.5-29.5-38.5-71.1-79.1-109.6-106.8-74-53.2-151.8-85.5-240.1-99.6-27.5-4.4-45.4-5.8-81.5-6.3-19.8-.3-36.2-.3-36.5 0m-274.3 122.3c-.3.3-1.2.4-1.9.1-.8-.3-.5-.6.6-.6 1.1-.1 1.7.2 1.3.5m-51 39.6c-.3.8-.6.5-.6-.6-.1-1.1.2-1.7.5-1.3.3.3.4 1.2.1 1.9m377.8 22.3c51.4 1.7 110 18.6 157 45.3 14.5 8.2 38.8 24.8 52.4 35.7 21.5 17.3 46.9 43.7 63 65.5 3.5 4.7 6.7 8.4 7.3 8.2.5-.1.7.2.4.7-.4.5 2.7 6.1 6.7 12.3 9.7 14.8 18.2 30.3 25.3 46 3.2 7 6.2 12.4 6.8 12.1.5-.3.6-.1.2.5-.4.7 1.1 6 3.3 11.9 7 19.3 13.4 43.4 16.6 63 .3 1.8.7 4.6 1 6.3 4 23 5.5 61.2 3.4 86.1-.7 9-1.3 18.5-1.4 21.1 0 2.5-.3 4.4-.6 4.2s-1.1 3.4-1.8 7.9-3 15.6-5.1 24.7c-14.7 63.1-46.6 121.6-91.6 168.1-12.5 12.9-21.2 20.7-39.9 35.7-22.2 17.7-31.7 26.1-30.8 27.4.3.6.1.8-.5.5-1.6-1.1-16.4 15.4-24.1 26.7-11.6 17.2-19 32.9-24.6 52.1-5.2 18.2-5.8 23.6-6.4 63-.6 34.3-.7 37.3-2.6 41-1.4 2.9-3.3 4.7-6.7 6.3-10.9 5.4-70.3 14.9-105.1 16.8l-12.9.7.5-47.9c.5-49.2.9-54.7 5.4-78.8.9-5 1.7-10.8 1.7-12.8 0-2.1.3-3.3.6-2.8.4.6 1.4-2.5 2.4-6.7 2.1-9.1 9-29.6 13.5-40.2 1.8-4.1 2.9-8.1 2.6-8.8-.2-.8-.1-1.2.4-.9 1.2.8 8.4-15.1 7.5-16.5-.4-.7-.3-.9.4-.6.6.4 3-2.9 5.7-8 12.7-23.5 34.4-52.3 55-72.8 11.3-11.4 17.8-17.1 41-36 17.1-13.9 27.1-23.6 38.1-37 13.8-16.7 22.8-30.5 31.4-48 16.3-33.1 23.7-63.5 24.7-100.3 1.2-41.9-7.6-80.2-27.1-117.7-18.6-36-45.9-66.7-79.6-89.4-28.8-19.5-58.8-31.6-95-38.2-15.6-2.9-49.2-3.6-67.4-1.5-51.6 6-96.9 27-138.1 64.1-13.4 12.1-32.5 35.6-42.6 52.6-17.6 29.6-29.9 67.1-32.8 100.4-.6 6.6-1.5 17.2-2.1 23.6-.6 6.5-.9 12.3-.7 13 .2.8.2 1-.1.6-.2-.4-1.6 2.8-3.2 7.2-1.5 4.4-4 10.1-5.5 12.8-7.5 12.8-21.7 28.8-38 42.8-27 23.1-38.2 38.6-44.6 61.7-.7 2.7-1.6 4.8-1.9 4.8s-1-1.5-1.7-3.3c-5.8-16.7-7.8-21.5-8.6-21q-.9.45-.3-.6c.4-.6-.9-5.8-2.8-11.6-5.2-15.5-10.4-39.8-13.8-64.5-1.7-12.7-1.7-69 0-82 4.9-37 11.4-63.2 22.8-92.8 2.4-6.3 4.1-11.9 3.7-12.5-.3-.7-.3-.9.1-.5.4.3 4.3-6.4 8.6-15 28.5-56.8 67.3-102.2 119.1-139.2 47.2-33.8 103.4-55.8 162.9-63.5 12.9-1.7 41.1-3.3 49-2.8 2.5.1 11.3.5 19.5.8m-304.5 96.5c0 .5-.5 1-1.1 1-.5 0-.7-.5-.4-1 .3-.6.8-1 1.1-1 .2 0 .4.4.4 1m315 56.4c25.7 4.4 38.8 8.5 61.5 19.6 17.1 8.3 27.6 14.9 42 26.5 9.4 7.6 27 25.2 32 32 1.7 2.2 3.3 4.2 3.6 4.5 1 .9 11.2 16.4 15 22.7 2 3.5 3.9 6 4.2 5.7s.4.1.4.8c-.3 2.3 4.5 11.8 5.6 11.1.6-.3.7-.1.3.5-.4.7.8 5.1 2.7 9.9 11.4 29 15.2 51.4 14.4 85.3-.4 20.2-.8 24-3.5 37-1.7 8-4.5 18.8-6.3 24-25.3 75.9-88.9 130.3-168.9 144.5-14.3 2.6-46.4 3.1-61.6 1.1-22.9-3-49.4-11.1-69.5-21.1-4.1-2.1-14-7.9-22-13-17-10.8-23.5-14.3-33.9-17.8-27.9-9.5-57.7-7.7-82.4 5-19.2 10-33.7 24.8-45.1 46-7.1 13.2-14.3 12.5-20.3-2-12-28.6-14-50.1-6.7-71 4-11.5 8.1-17.4 20.4-29.2 58.4-55.9 68.3-72 71.1-115.5 1.7-25.2 4.6-41.8 10.6-60.2 1.4-4.3 2.2-8.3 1.8-8.9q-.6-1.05.3-.6c.6.4 2-1.7 3.3-5.1 6.1-15.3 20.7-40.2 31.8-54.2 9.8-12.3 30.7-31.7 42.4-39.5 3.4-2.2 5.5-4.2 5.1-4.9-.3-.6-.3-.8.1-.4.5.4 2.4-.3 4.4-1.4 26.3-15 34.6-18.8 52.2-24.1 25.3-7.6 42-9.8 68-9.2 10.2.3 22.3 1.1 27 1.9m-547.3 111.8c-.3.8-.6.5-.6-.6-.1-1.1.2-1.7.5-1.3.3.3.4 1.2.1 1.9m148 107.5c-.2 2.1-.4.4-.4-3.7s.2-5.8.4-3.8c.2 2.1.2 5.5 0 7.5m594 72.5c-.3.8-.6.5-.6-.6-.1-1.1.2-1.7.5-1.3.3.3.4 1.2.1 1.9m-373.2 110.8c.3.6-.1.7-.9.4-1.8-.7-2.1-1.4-.7-1.4.6 0 1.3.4 1.6 1m470.7 31.2c-.7.7-1.2.8-1.2.2 0-1.4 1.2-2.6 1.9-1.9.2.3-.1 1.1-.7 1.7m-304.5 156c-.3.8-.6.5-.6-.6-.1-1.1.2-1.7.5-1.3.3.3.4 1.2.1 1.9"/><path d="M541.745 442.025c-43.6 3.2-79.6 31.7-93.8 74.4-4.1 12.6-5.6 23.8-4.9 38.6 1.3 29.9 15.1 58 37.9 77 3.8 3.2 6.4 4.6 7.6 4.3 1.3-.5 1.4-.4.3.4s-1 1.2.8 2.1c1.2.7 2.6.9 3.1.6.6-.4.9-.1.8.6-.2.6.3 1.4 1.1 1.7.9.3 1.1 0 .6-.8-.5-.9-.4-1.1.4-.6.6.4.9 1.1.6 1.6s.3 1.4 1.4 1.9c2.5 1.4 3.4 1.4 2.6.1-.3-.6.1-.7 1-.3 1.3.4 1.4.8.4 1.4-2.8 1.7 21.1 10.1 34 11.9 13.6 2 44.3-.2 42.6-3.1-.3-.4.3-.5 1.3-.2 1 .2 4.9-.7 8.8-2.2 24.9-9.4 46.5-28.6 58.8-52.5 13.8-27 15.7-56.7 5.4-86.5-5-14.4-9.2-19.5-16-19.5-7.2 0-11.9 3.7-13.8 11-1.7 6.2-6.3 12.5-11.4 15.5-5.2 3-14.8 3.5-20.2.9-4.3-2-8.8-6.7-11-11.2-2.1-4.5-2.1-13 .1-17.6 2.5-5.3 9.7-11.4 15.1-12.8 10.2-2.8 14.6-14.2 8.4-22.1-4.3-5.4-25.1-13-39-14.3-11.4-1-13.3-1-23-.3m18.8 28.6c.7 1.2.3 2.3-1.4 4.2-5.5 5.9-9.4 22.9-7.6 33.4 1.1 6.9 5 17 6.2 16.2.4-.3.7.3.6 1.3 0 .9.4 1.6 1.1 1.5.7-.2 1 .3.7 1-.6 1.7 8.8 11 14.5 14.3 7.7 4.7 14.9 6.6 24.6 6.6 10.8 0 15.9-1.2 24.4-5.8 7.7-4.2 8.1-3.9 8 6.6 0 9.4-2 20.5-5.2 29.4-1.4 3.9-2.3 7.5-2 8 .3.6.2.8-.2.4-.5-.5-3.2 2.7-6 7-22.9 33.9-64.5 45.5-101.8 28.3-3.4-1.6-8.2-4.2-10.7-5.9-2.4-1.7-4.8-2.8-5.2-2.6-.5.3-.7.1-.6-.4.2-.4-2.5-3.6-5.8-6.9-10.6-10.4-17.8-22.8-21.8-37.3-2.7-9.7-2.6-30.9.2-41.1 6.8-25.1 26.1-46.4 49.4-54.5 10.9-3.9 18.3-5.2 28.5-5.3 7.6-.1 9.4.2 10.1 1.6m-219.6 133.3c-.5 1.4-2.6 5.4-4.6 8.8-5 8.9-7 16.2-6.2 23.1.8 7.3 4.6 19.2 5.9 18.4q.9-.45.3.6c-1 1.5 5.2 12.5 10.4 18.4 7.2 8.2 15.4 11.6 30.9 13.2l7.4.7-3.5-4.3c-6.4-8-14.5-20.3-19.3-29.1-2.5-4.8-5.1-8.6-5.7-8.5s-1.3-.5-1.5-1.3c-.4-1.3-.3-1.3.6 0 2.1 3 1-.7-3.5-11.5-4.7-11.1-6.2-13.9-5.1-9.8.3 1.5.1 2.3-.8 2.3-1.1 0-1.2-.6-.4-2.9s.5-4.8-1.4-11.7c-2.2-8-2.6-8.6-3.5-6.4m1.2 3.6c.3.8.2 1.3-.3 1s-1.4.8-2 2.4c-.5 1.7-1.4 3-2 3-.7 0 2.8-7.9 3.5-8 .1 0 .5.7.8 1.6m-4.4 8.8c0 .3-.4.8-1 1.1-.5.3-1 .1-1-.4 0-.6.5-1.1 1-1.1.6 0 1 .2 1 .4m-4.8 8.8c-.7.7-1.2.8-1.2.2 0-1.4 1.2-2.6 1.9-1.9.2.3-.1 1.1-.7 1.7m16.8 5.8c0 .5-.5 1-1.1 1-.5 0-.7-.5-.4-1 .3-.6.8-1 1.1-1 .2 0 .4.4.4 1m8.8 18.5c-.3.3-.9-.2-1.2-1.2-.6-1.4-.5-1.5.5-.6.7.7 1 1.5.7 1.8m3.6 7.1c.3.8.2 1.2-.4.9s-1-1-1-1.6c0-1.4.7-1.1 1.4.7m-21.4 4c0 .8-.4 1.2-1 .9-.5-.3-1-1-1-1.6 0-.5.5-.9 1-.9.6 0 1 .7 1 1.6m24.7 3.6c-.3.8-.6.5-.6-.6-.1-1.1.2-1.7.5-1.3.3.3.4 1.2.1 1.9m-19.7 2.9c0 1.4-1.7 1-2.3-.5q-.6-1.5.9-.9c.7.3 1.4.9 1.4 1.4m3-.1c0 .5-.5 1-1.1 1-.5 0-.7-.5-.4-1 .3-.6.8-1 1.1-1 .2 0 .4.4.4 1m-1 3.5c1.1 1.3 1 1.4-.4.9-.9-.3-1.6-1-1.6-1.5 0-1.3.6-1.1 2 .6m3 2.6c0 1.1-.4 1.8-1 1.4-.5-.3-.7-1.2-.3-2 .7-2.1 1.3-1.9 1.3.6m21.9-.3c.7 1.4.5 2.1-1 3-1.1.7-1.9.8-1.9.2 0-.5.5-1 1-1 1.4 0 1.2-2.7-.2-3.3-1-.4-1-.6-.1-.6.7-.1 1.7.7 2.2 1.7m3.2 4.9c1.3 1.7 1.3 1.7-.6.3-1.1-.8-2.2-1.6-2.4-1.7q-.3-.3.6-.3c.6 0 1.7.8 2.4 1.7m-2.2 5.3c-.6.5-1.8.6-2.6.3-1.9-.8-1.6-1.1 1.3-1.1 1.7 0 2.2.3 1.3.8"/></g></svg>