<svg xmlns="http://www.w3.org/2000/svg" viewBox="0 0 960 960" role="img" aria-labelledby="title desc">
	<title id="title">Neutral content gate</title>
	<desc id="desc">A validated content artifact flowing through a gate into themed render targets.</desc>
	<rect width="960" height="960" fill="#eef2f5" />
	<g fill="#ffffff" stroke="#1f2a44" stroke-opacity="0.18">
		<rect x="118" y="132" width="282" height="696" rx="28" />
		<rect x="560" y="112" width="282" height="212" rx="28" />
		<rect x="560" y="374" width="282" height="212" rx="28" />
		<rect x="560" y="636" width="282" height="212" rx="28" />
	</g>
	<g fill="none" stroke="#2563eb" stroke-width="16" stroke-linecap="round" stroke-linejoin="round">
		<path d="M400 480h92" />
		<path d="M492 480c42 0 38-260 68-260" opacity="0.55" />
		<path d="M492 480h68" />
		<path d="M492 480c42 0 38 260 68 260" opacity="0.55" />
	</g>
	<g fill="#1f2a44">
		<rect x="166" y="206" width="184" height="22" rx="11" />
		<rect x="166" y="276" width="138" height="18" rx="9" opacity="0.45" />
		<rect x="166" y="326" width="190" height="18" rx="9" opacity="0.32" />
		<rect x="166" y="376" width="124" height="18" rx="9" opacity="0.32" />
		<rect x="166" y="548" width="184" height="22" rx="11" />
		<rect x="166" y="618" width="154" height="18" rx="9" opacity="0.45" />
		<rect x="166" y="668" width="196" height="18" rx="9" opacity="0.32" />
	</g>
	<g fill="#2dd4bf">
		<circle cx="620" cy="218" r="22" />
		<rect x="666" y="204" width="118" height="28" rx="14" />
	</g>
	<g fill="#d2924f">
		<circle cx="620" cy="480" r="22" />
		<rect x="666" y="466" width="132" height="28" rx="14" />
	</g>
	<g fill="#7b9cba">
		<circle cx="620" cy="742" r="22" />
		<rect x="666" y="728" width="108" height="28" rx="14" />
	</g>
</svg>
